<?xml version="1.0" encoding="UTF-8"?>
<svg id="Layer_1" data-name="Layer 1" xmlns="http://www.w3.org/2000/svg" viewBox="0 0 741.58 175.11">
  <defs>
    <style>
      .cls-1 {
        fill: #009cdc;
      }

      .cls-1, .cls-2, .cls-3, .cls-4, .cls-5, .cls-6, .cls-7 {
        stroke-width: 0px;
      }

      .cls-2 {
        fill: #5c8727;
      }

      .cls-3 {
        fill: #8dc63f;
      }

      .cls-4 {
        fill: #f15c21;
      }

      .cls-5 {
        fill: #fff;
      }

      .cls-6 {
        fill: #adafb2;
      }

      .cls-7 {
        fill: #f8971c;
      }
    </style>
  </defs>
  <g>
    <path class="cls-6" d="M690.93,69.1h-.03c-3.15,14.53-10.1,37.6-10.07,48.33.05,11.17,2.28,16.69,5.51,19.05,1.52,1.11,3.25,1.52,5.11,1.51,5.81-.01,10.51-4.3,10.45-20.62-.03-10.75-7.69-33.74-10.96-48.26"/>
    <path class="cls-6" d="M690.95,68.91c3.15-14.58,10.64-37.62,10.58-48.33C701.46,4.22,696.75-.02,690.92,0c-5.81.02-10.52,4.31-10.45,20.66.05,10.72,7.19,33.7,10.45,48.24h.03Z"/>
    <path class="cls-4" d="M697.06,83.99l-.02.03c6.03,13.59,13.95,36.34,20.3,45.02,6.6,9,11.64,12.15,15.67,12.15,1.85,0,3.51-.68,5.01-1.76,4.68-3.45,5.98-9.68-3.69-22.85-6.34-8.67-26.06-22.75-37.26-32.57"/>
    <path class="cls-7" d="M696.95,83.83c-6-13.63-13.5-36.66-19.85-45.33-9.66-13.16-16-13.83-20.68-10.39-4.7,3.44-5.97,9.67,3.69,22.86,6.35,8.65,25.64,23.04,36.81,32.88l.03-.02Z"/>
    <path class="cls-3" d="M635.69,58.23l-.03.03c10.4,10.64,25.79,29.17,34.77,35.08,9.34,6.12,15.16,7.32,18.93,5.92,1.75-.65,3.07-1.89,4.08-3.43,3.18-4.85,2.2-11.12-11.44-20.11-8.99-5.9-32.38-12.2-46.3-17.5"/>
    <path class="cls-2" d="M689.35,99.26c1.75-.65,3.07-1.89,4.08-3.43,2.59-3.97,2.41-8.89-5.21-15.47-1.55,6.23-3.26,12.91-4.67,19.13,2.35.46,4.24.33,5.8-.24Z"/>
    <path class="cls-1" d="M635.54,58.12c-10.42-10.68-25.51-29.63-34.48-35.51-13.65-8.98-19.79-7.38-23.02-2.51-3.17,4.85-2.19,11.14,11.47,20.12,8.98,5.87,32.09,12.61,45.99,17.91l.05-.02Z"/>
  </g>
  <g>
    <path class="cls-5" d="M211.49,113.54c-.94,0-1.39,2.41-4.36,5.11-3.47,3.18-6.59,4.4-13.56,6.87-7.75,2.73-10.4,6.12-12.73,10.89-1.31,2.68-1.74,5.77-1.43,7.48.17.88.34,1.79.92,1.61.8-.24,3.1-8.25,10.72-8.76,3.56-.25,7.98,1.05,9.62,6.48.24.79.31,1.59.37,2.38.93,11.28-10.12,21.89-23.44,21.33-9.96-.44-20.76-6.75-22.51-18.57-1.45-9.85,2.62-20.18,9.44-23.83.97.27,2.21.59,3.62.87,2.71.54,5.05.59,7.44.18,2.34-.39,5.09-1.79,4.78-3.98-.45-3.18-5.62-3.61-8.31-3.57-2.9.01-5.09.48-6.15.75-2.09-1.72-3.4-3.56-4.29-6.73-1.8-6.34,1.75-17.06,12.07-18.13,6.57-.69,10.79,2.03,13.48,5.46,2.7,3.44,3.63,4.7,4.32,4.47.5-.17.71-.55.77-1.66v-6.51c-.03-.7-.09-1.39-.24-2.01-.96-3.84-10.05-7.86-19.77-7.4-3.08.14-5.08.35-9.82,1.99-11.08,3.81-14.64,13.83-13.68,21.23,1.01,7.7,7.49,11.44,7.49,11.44-11.3,4.37-20.38,16.53-16.41,32.37,3.99,15.81,21.89,21.58,33.98,21.83,13.36.29,22.89-4.94,28.71-11.21,4.85-5.23,7.76-12.84,6.64-20.21-.39-2.55-2.38-8.27-6.76-10.97,0,0,2.45-.86,4.07-2.1,3.81-2.84,5.52-6.33,6.06-9.87.46-3.03-.03-5.89-.55-6.83,0,0-.19-.37-.5-.37Z"/>
    <path class="cls-5" d="M249.2,166.95c7.49,0,32.98-.01,33.01,0,10.7,0,21.58-5.58,22.45-19.86.87-14.62-7.98-20.15-19.13-20.15h-14.84c-3.96,0-6.16.11-8.63,4.39l-4.9,9.2h19.58c4.62,0,6.6,3.05,6.6,6.57s-2.08,6.22-6.49,6.22h-17.87c-5,0-9.4-1.68-12.33-5.29-2.37-2.94-4.45-6.8-4.45-13.59,0-7.3,2.27-10.43,4.45-13.2,2.6-3.26,6.74-4.46,10.62-4.87l1.8-.07h32.09v-.03c3.93,0,6.16-.1,8.61-4.38l4.85-9.14h-54.81c-17.16,0-29.65,13.83-29.65,32.14,0,16.47,10,29.5,24.69,31.79,0,0,1.17.26,4.35.26Z"/>
    <path class="cls-5" d="M90.04,122.02c0-5.85-4.82-5.69-4.82-5.69h-25.45l-15.1,14.27,29.29,36.36h-20.05c-7.43,0-10.12-3.59-14.23-9.06h-.02l-13.96-18.51c-.34-.47-1.17-1.14-2.4-.71-.76.25-1,.92-1.07,1.47v26.81H0v-64.22h22.23v27.21l22.74-22.49c2.22-2.09,3.85-3.3,6.12-3.99,1.52-.46,3.29-.65,5.71-.73.04-.01.08-.01.13-.01h85.76l-4.88,9.22c-2.36,4.07-4.49,4.35-8.1,4.37h-18.01v50.63h-21.66v-44.95Z"/>
  </g>
  <g>
    <g>
      <path class="cls-5" d="M425.6,135.19c9.96,0,18.93-6.28,18.93-17.54,0-5.62-2.24-10-5.72-12.98h9.95s0-7.29,0-7.29h-17.89v-6.81h-10.53v6.81h-18.27l1.8,4.84c.72,1.96,2.05,2.44,4.08,2.45h4.45c-3.49,2.98-5.73,7.35-5.73,12.98,0,11.26,8.96,17.54,18.93,17.54ZM425.6,106.67c4.51,0,8.16,3.64,8.16,10.98s-3.65,11-8.16,11-8.16-3.64-8.16-11,3.66-10.98,8.16-10.98Z"/>
      <path class="cls-5" d="M465.36,108.4v-13.64h-10.53v39.3h10.53v-18.38h6.4c2.03-.01,3.36-.48,4.07-2.45l1.79-4.83h-12.27Z"/>
      <path class="cls-5" d="M414.07,144.55c.71,1.97,2.05,2.44,4.08,2.44h33.45c2.25,0,3.23,1.33,3.23,3.37v16.63h10.53v-27.27h-53.08l1.79,4.84Z"/>
    </g>
    <g>
      <path class="cls-5" d="M538.56,94.76v19.5h-6.26v-19.5h-10.24v72.21h10.24v-45.58h2.46c2.65,0,3.8,1.56,3.8,3.95v41.63h10.22v-72.21h-10.22Z"/>
      <path class="cls-5" d="M505.22,110.13v-8.09h8.46c2.02-.02,3.37-.48,4.07-2.45l1.8-4.83h-36.77v7.28h7.72c2.65,0,3.8,1.55,3.8,3.94v4.15c0,11.21-2.62,20.93-14.51,28.27l3.97,7.34s11.88-7.24,15.99-17.29c4.11,10.06,15.99,17.29,15.99,17.29l3.97-7.34c-11.89-7.34-14.51-17.05-14.51-28.27Z"/>
    </g>
    <g>
      <path class="cls-5" d="M581.87,155.23v-16.1h-10.46v19.04s-.02.05-.02.09c0,3.9,3.17,7.07,7.07,7.07h41.41c2.03-.01,3.38-.48,4.09-2.44l1.78-4.83h-41.16c-1.9,0-2.71-1.1-2.71-2.82Z"/>
      <path class="cls-5" d="M623.29,108.38v-13.62h-10.53v27.62h-35.24c-1.72,0-2.82-.83-2.82-2.71v-14.92c0-1.88,1.1-2.71,2.82-2.71h18.67c2.03,0,3.38-.46,4.1-2.43l1.79-4.84h-37.85v27.68c0,3.9,3.16,7.08,7.08,7.08h37.68c2.63,0,3.77,1.53,3.77,3.92v8.86h10.53v-26.64h6.37c2.04-.02,3.38-.47,4.1-2.45l1.78-4.84h-12.25Z"/>
    </g>
    <g>
      <path class="cls-5" d="M359.86,133.62c-14.53,0-26.3,5.56-26.3,16.66s11.77,16.63,26.3,16.63,26.32-5.56,26.32-16.63-11.78-16.66-26.32-16.66ZM359.86,160.21c-8.57,0-15.54-3.82-15.54-9.92s6.97-9.96,15.54-9.96,15.54,3.84,15.54,9.96-6.96,9.92-15.54,9.92Z"/>
      <path class="cls-5" d="M385.44,108.37v-13.61h-10.52v36.52h10.52v-15.64h6.4c2.02-.02,3.37-.48,4.07-2.45l1.8-4.83h-12.27Z"/>
      <path class="cls-5" d="M346.36,115.53c4.38,7.1,12.81,11.98,18.85,15.02l3.61-7.12c-10.82-5.99-16.97-11.97-16.97-21.33v-.07h10.88c2.03-.02,3.37-.48,4.09-2.46l1.77-4.81h-42.44v7.27h14.72v.07c0,9.36-6.15,15.34-16.99,21.33l3.62,7.12c6.02-3.03,14.46-7.91,18.86-15.02Z"/>
    </g>
  </g>
</svg>