<svg id="레이어_1" data-name="레이어 1" xmlns="http://www.w3.org/2000/svg" viewBox="0 0 841.89 595.28"><defs><style>.cls-1{fill:#fff;}</style></defs><path class="cls-1" d="M685,378.92c-41,0-74.31-36.41-74.31-81.33S644,216.26,685,216.26c23.84,0,47.35,10.86,61.38,29.71l62.08-52.64c-30.1-33.06-74.23-54-123.46-54-78.94,0-144.84,53.67-160.61,125.2H434.18v69h62.34v26.85c-15,13.19-38.07,18.51-58.21,18.51-41,0-74.31-36.41-74.31-81.33s32.9-80.15,75.71-81.33c25.1-.7,48.27,4.39,67.28,15.3a180.46,180.46,0,0,1,42-63.4c-31.86-18.83-72.45-28.79-110.72-28.79-84,0-153.16,60.73-163,139.08-19.64-8.26-44.11-14.08-72.52-18.77-46.94-8.2-59.14-14-59.14-28v-.88c0-10.91,11.72-18.83,34.44-19.52,26.1-.81,55.11,5.36,82.61,19.3a190.28,190.28,0,0,1,41.86-62.32c-33.38-19.34-72.42-30.1-122-28.58-81.3,2.49-134.34,41.82-134.34,102.78s58.86,79.54,131,92.23c46,8.2,55.24,14.68,55.24,27.52,0,10.82-12.56,16.81-36.7,18.69-39,3-80.94-6.66-110-29l-52.29,58c41.62,32.36,98.73,47.67,158.76,45.83C247.9,454,286.72,433.46,315,402c30.1,33,74.15,53.78,123.3,53.78S531.55,435,561.65,402c30.1,33,74.19,53.83,123.35,53.83s93.34-20.88,123.43-53.93l-62-52.37C731.13,367,708.78,378.92,685,378.92Z"/></svg>