<svg id="레이어_1" data-name="레이어 1" xmlns="http://www.w3.org/2000/svg" viewBox="0 0 841.89 595.28"><defs><style>.cls-1{fill:#ed1c24;}.cls-2{fill:#fff;}</style></defs><path class="cls-1" d="M419.28,345.84c-24.34,0-44.06-21.6-44.06-48.23s19.72-48.23,44.06-48.23c14.14,0,28.08,6.44,36.4,17.62l36.81-31.21a98.7,98.7,0,0,0-73.21-32c-46.81,0-85.89,31.83-95.24,74.24H270.55v40.91h37v15.92c-8.88,7.82-22.58,11-34.52,11-24.34,0-44.06-21.6-44.06-48.23s19.5-47.52,44.89-48.23c14.88-.41,28.62,2.6,39.9,9.08a106.78,106.78,0,0,1,24.93-37.6c-18.9-11.16-43-17.07-65.66-17.07-49.79,0-90.82,36-96.63,82.47-11.66-4.9-26.16-8.35-43-11.13-27.83-4.86-35.07-8.28-35.07-16.58V258c0-6.48,6.95-11.17,20.43-11.58,15.47-.48,32.67,3.18,49,11.44A112.88,112.88,0,0,1,192.52,221c-19.79-11.47-42.94-17.85-72.37-16.95C72,205.48,40.5,228.8,40.5,265s34.9,47.16,77.65,54.69c27.26,4.86,32.75,8.7,32.75,16.32,0,6.41-7.45,10-21.76,11.08-23.13,1.8-48-4-65.22-17.2l-31,34.38c24.68,19.19,58.54,28.27,94.14,27.18,33-1,56.05-13.22,72.83-31.86a99.75,99.75,0,0,0,146.25,0,99.75,99.75,0,0,0,146.33-.06L455.7,328.4C446.64,338.77,433.38,345.84,419.28,345.84Z"/><path class="cls-2" d="M602.71,252.64h-8.45a1.27,1.27,0,0,0-1.45,1.42v34.12h-9.17a49.39,49.39,0,0,0-2.28-13,28.48,28.48,0,0,0-4.84-9.17,19.42,19.42,0,0,0-6.91-5.43,20.33,20.33,0,0,0-8.45-1.79,18.6,18.6,0,0,0-8.72,2.06,18.84,18.84,0,0,0-6.85,6.3,33.48,33.48,0,0,0-4.53,10.64A67.59,67.59,0,0,0,541,307a34.78,34.78,0,0,0,4.39,10.7,20.19,20.19,0,0,0,6.85,6.71,17.31,17.31,0,0,0,9,2.34,18.27,18.27,0,0,0,8.24-1.89,20.19,20.19,0,0,0,6.75-5.53,30.83,30.83,0,0,0,4.85-8.86,44.31,44.31,0,0,0,2.43-11.83h9.38v51c0,1,.48,1.51,1.45,1.51h8.45c.89,0,1.34-.5,1.34-1.51V254.06C604.05,253.12,603.6,252.64,602.71,252.64ZM571.62,301a35.36,35.36,0,0,1-2,7.5,17.35,17.35,0,0,1-3.39,5.53,6.62,6.62,0,0,1-5,2.16,6,6,0,0,1-4.63-2.16,16.63,16.63,0,0,1-3.21-5.59,39.54,39.54,0,0,1-1.85-7.55,53,53,0,0,1,0-16.16,38.28,38.28,0,0,1,1.85-7.5,16.07,16.07,0,0,1,3.21-5.48,6.08,6.08,0,0,1,4.63-2.11,6.93,6.93,0,0,1,5,2.06,15.36,15.36,0,0,1,3.45,5.43,32.59,32.59,0,0,1,2,7.48,54.77,54.77,0,0,1,.63,8.25A50.23,50.23,0,0,1,571.62,301Z"/><path class="cls-2" d="M622.61,250.8h-8.87a1.27,1.27,0,0,0-1.45,1.42V352.53c0,.94.45,1.42,1.36,1.42h9c.89,0,1.34-.48,1.34-1.42V252.22C624,251.27,623.5,250.8,622.61,250.8Z"/><path class="cls-2" d="M692.3,321.19a80.11,80.11,0,0,1-9.43,2.06c-3.6.57-7.42,1-11.43,1.35s-8.11.54-12.23.65-8.08.1-11.86-.05c-2.68-.16-4.61-.94-5.78-2.4a8.91,8.91,0,0,1-1.74-5.74V259.2a1.48,1.48,0,0,1,.47-1,1.28,1.28,0,0,1,1-.48h8.86a1.43,1.43,0,0,1,1.09.48,1.52,1.52,0,0,1,.47,1v53.62a1.82,1.82,0,0,0,.4,1.41,2.36,2.36,0,0,0,1.46.33q9.27.22,18.19-.39a120.7,120.7,0,0,0,18.91-2.87,1.54,1.54,0,0,1,1.61.39,4.07,4.07,0,0,1,.67,1.24l1.13,6.09C694.27,320.09,693.68,320.82,692.3,321.19Zm11.24-69c0-.95.45-1.42,1.35-1.42h9.17c.89,0,1.34.47,1.34,1.42V352.53c0,1-.45,1.42-1.34,1.42h-9.17c-.9,0-1.35-.47-1.35-1.42V292.09H676.12a2,2,0,0,1-1-.42,1.42,1.42,0,0,1-.62-1.2V283.3a1.39,1.39,0,0,1,.62-1.19,2,2,0,0,1,1-.44h27.42Z"/><path class="cls-2" d="M735.46,328.45a2.51,2.51,0,0,1-1.76.43,1.85,1.85,0,0,1-1.45-1l-4-5.64a1.65,1.65,0,0,1-.25-1.86,3.37,3.37,0,0,1,1.18-1.29,88.65,88.65,0,0,0,12.38-9.77,98.84,98.84,0,0,0,10.57-11.62,82.22,82.22,0,0,0,8-12.42,55.13,55.13,0,0,0,4.75-12.21,3.9,3.9,0,0,0,.1-2.39c-.21-.36-.9-.54-2.06-.54H736.27a1.14,1.14,0,0,1-1-.5,1.78,1.78,0,0,1-.34-1.13v-7.27c0-1,.48-1.53,1.43-1.53H770a10.53,10.53,0,0,1,6.28,1.65,5,5,0,0,1,2.27,4.23,24,24,0,0,1-.72,5.53A83,83,0,0,1,774,282.71,89.74,89.74,0,0,1,768,294.38c1.31,1.88,2.83,3.84,4.54,5.91s3.51,4.06,5.36,6,3.68,3.79,5.48,5.48a56.93,56.93,0,0,0,4.83,4.18,2.66,2.66,0,0,1,1,1.42,1.88,1.88,0,0,1-.36,1.73l-4.43,5.31c-.9,1-2,1.09-3.4.23a44.56,44.56,0,0,1-4.38-3.64c-1.68-1.56-3.43-3.28-5.21-5.17s-3.53-3.86-5.26-6-3.27-4.08-4.64-6A119.62,119.62,0,0,1,749.79,317,103.32,103.32,0,0,1,735.46,328.45ZM809,352.53a1.27,1.27,0,0,1-1.45,1.42h-9.07a1.54,1.54,0,0,1-1-.39,1.24,1.24,0,0,1-.47-1V252.22a1.35,1.35,0,0,1,.47-1,1.45,1.45,0,0,1,1-.43h9.07a1.27,1.27,0,0,1,1.45,1.42Z"/></svg>